<svg width="180" height="32" viewBox="0 0 180 32" fill="none" xmlns="http://www.w3.org/2000/svg">
<path d="M22.84 29H17.116L10.222 16.886L6.37002 21.53V29H0.916016V2.97195H6.37002V14.888L15.856 2.97195H21.886L13.984 13.052L22.84 29Z" fill="url(#paint0_radial_2341_12331)"/>
<path d="M30.5928 29.36C29.4048 29.36 28.3368 29.138 27.3888 28.694C26.4408 28.25 25.6908 27.608 25.1388 26.768C24.5868 25.916 24.3108 24.884 24.3108 23.672C24.3108 21.632 25.0728 20.084 26.5968 19.028C28.1208 17.96 30.5268 17.408 33.8148 17.372L36.1368 17.336V16.22C36.1368 15.368 35.8848 14.714 35.3808 14.258C34.8888 13.79 34.1208 13.562 33.0768 13.574C32.3088 13.586 31.5768 13.766 30.8808 14.114C30.1968 14.462 29.7288 15.068 29.4768 15.932H25.1028C25.1748 14.588 25.5648 13.484 26.2728 12.62C26.9808 11.744 27.9408 11.096 29.1528 10.676C30.3768 10.244 31.7628 10.028 33.3108 10.028C35.2188 10.028 36.7488 10.268 37.9008 10.748C39.0528 11.216 39.8868 11.894 40.4028 12.782C40.9188 13.658 41.1768 14.702 41.1768 15.914V29H36.7848L36.3528 25.796C35.7168 27.14 34.9188 28.07 33.9588 28.586C33.0108 29.102 31.8888 29.36 30.5928 29.36ZM32.3568 25.904C32.8368 25.904 33.2988 25.82 33.7428 25.652C34.1988 25.472 34.6008 25.238 34.9488 24.95C35.3088 24.65 35.5968 24.314 35.8128 23.942C36.0288 23.57 36.1368 23.186 36.1368 22.79V20.036L34.2468 20.072C33.3708 20.084 32.5548 20.192 31.7988 20.396C31.0428 20.588 30.4308 20.906 29.9628 21.35C29.5068 21.794 29.2788 22.394 29.2788 23.15C29.2788 24.014 29.5788 24.692 30.1788 25.184C30.7788 25.664 31.5048 25.904 32.3568 25.904Z" fill="url(#paint1_radial_2341_12331)"/>
<path d="M49.6815 10.388V29H44.6595V10.388H49.6815ZM49.7355 2.98995V7.72395H44.6235V2.98995H49.7355Z" fill="url(#paint2_radial_2341_12331)"/>
<path d="M63.4777 29.36C62.5537 29.36 61.7557 29.24 61.0837 29C60.4117 28.76 59.8417 28.442 59.3737 28.046C58.9057 27.638 58.5217 27.188 58.2217 26.696C57.9217 26.204 57.6877 25.7 57.5197 25.184L56.9257 29H53.1097V2.25195H58.3837V12.908C58.6117 12.512 58.9057 12.14 59.2657 11.792C59.6257 11.444 60.0457 11.138 60.5257 10.874C61.0057 10.61 61.5337 10.406 62.1097 10.262C62.6977 10.106 63.3217 10.028 63.9817 10.028C66.2977 10.028 68.1097 10.862 69.4177 12.53C70.7377 14.198 71.3977 16.55 71.3977 19.586C71.3977 21.554 71.0977 23.27 70.4977 24.734C69.8977 26.198 69.0097 27.338 67.8337 28.154C66.6577 28.958 65.2057 29.36 63.4777 29.36ZM62.3257 25.58C63.4537 25.58 64.3897 25.118 65.1337 24.194C65.8897 23.258 66.2677 21.698 66.2677 19.514C66.2677 17.582 65.9077 16.154 65.1877 15.23C64.4797 14.306 63.5137 13.844 62.2897 13.844C61.4137 13.844 60.6877 14.054 60.1117 14.474C59.5357 14.882 59.1037 15.506 58.8157 16.346C58.5397 17.186 58.3957 18.242 58.3837 19.514C58.3837 21.71 58.7077 23.27 59.3557 24.194C60.0157 25.118 61.0057 25.58 62.3257 25.58Z" fill="url(#paint3_radial_2341_12331)"/>
<path d="M78.7866 20.9C78.7746 21.848 78.9246 22.676 79.2366 23.384C79.5486 24.08 79.9986 24.62 80.5866 25.004C81.1866 25.376 81.9066 25.562 82.7466 25.562C83.6466 25.562 84.4326 25.37 85.1046 24.986C85.7886 24.602 86.2626 23.972 86.5266 23.096H91.2606C91.0566 24.416 90.5286 25.544 89.6766 26.48C88.8366 27.416 87.8166 28.13 86.6166 28.622C85.4166 29.114 84.1686 29.36 82.8726 29.36C81.0366 29.36 79.4166 28.976 78.0126 28.208C76.6206 27.428 75.5346 26.33 74.7546 24.914C73.9746 23.498 73.5846 21.83 73.5846 19.91C73.5846 18.05 73.9386 16.376 74.6466 14.888C75.3546 13.388 76.3806 12.206 77.7246 11.342C79.0806 10.466 80.7066 10.028 82.6026 10.028C84.4986 10.028 86.0886 10.43 87.3726 11.234C88.6686 12.026 89.6406 13.136 90.2886 14.564C90.9486 15.98 91.2786 17.618 91.2786 19.478V20.9H78.7866ZM78.7686 17.768H86.3646C86.3646 17.024 86.2266 16.34 85.9506 15.716C85.6746 15.092 85.2546 14.6 84.6906 14.24C84.1386 13.88 83.4426 13.7 82.6026 13.7C81.7866 13.7 81.0906 13.898 80.5146 14.294C79.9506 14.678 79.5186 15.182 79.2186 15.806C78.9186 16.43 78.7686 17.084 78.7686 17.768Z" fill="url(#paint4_radial_2341_12331)"/>
<path d="M94.4875 29V10.388H99.5455V14.798C99.8455 13.85 100.266 13.022 100.806 12.314C101.358 11.594 102.024 11.036 102.804 10.64C103.584 10.232 104.466 10.028 105.45 10.028C105.618 10.028 105.774 10.04 105.918 10.064C106.074 10.076 106.188 10.1 106.26 10.136V15.14C106.152 15.092 106.02 15.062 105.864 15.05C105.72 15.038 105.588 15.026 105.468 15.014C104.436 14.93 103.554 14.96 102.822 15.104C102.09 15.248 101.496 15.494 101.04 15.842C100.584 16.19 100.254 16.616 100.05 17.12C99.8455 17.624 99.7435 18.188 99.7435 18.812V29H94.4875Z" fill="url(#paint5_radial_2341_12331)"/>
<g clip-path="url(#clip0_2341_12331)">
<g opacity="0.75">
<path d="M118.26 12.23V5H120.585C121.465 5 122.13 5.16167 122.58 5.485C123.033 5.80833 123.26 6.275 123.26 6.885C123.26 7.26833 123.16 7.59667 122.96 7.87C122.763 8.14333 122.416 8.36833 121.92 8.545C122.203 8.605 122.441 8.69167 122.635 8.805C122.831 8.91833 122.988 9.05167 123.105 9.205C123.225 9.355 123.31 9.52167 123.36 9.705C123.413 9.88833 123.44 10.0817 123.44 10.285C123.44 10.9383 123.206 11.4267 122.74 11.75C122.276 12.07 121.583 12.23 120.66 12.23H118.26ZM119.185 11.46H120.65C121.253 11.46 121.711 11.3617 122.025 11.165C122.341 10.965 122.5 10.6583 122.5 10.245C122.5 9.94167 122.421 9.69667 122.265 9.51C122.111 9.32 121.903 9.18167 121.64 9.095C121.376 9.00833 121.083 8.965 120.76 8.965H119.185V11.46ZM119.185 8.18H120.76C120.95 8.18 121.138 8.16167 121.325 8.125C121.511 8.08833 121.683 8.025 121.84 7.935C121.996 7.845 122.123 7.725 122.22 7.575C122.316 7.42167 122.365 7.23 122.365 7C122.365 6.58 122.203 6.27 121.88 6.07C121.56 5.86667 121.143 5.765 120.63 5.765H119.185V8.18Z" fill="url(#paint6_radial_2341_12331)"/>
<path d="M124.938 12.23V5H129.498L129.492 5.815H125.867V8.175H129.132V8.985H125.862V11.395L129.592 11.405V12.23H124.938Z" fill="url(#paint7_radial_2341_12331)"/>
<path d="M130.479 5.85V5H135.949V5.85H133.744V12.23H132.814V5.85H130.479Z" fill="url(#paint8_radial_2341_12331)"/>
<path d="M135.672 12.23L138.287 5H139.332L141.947 12.23H141.002L140.292 10.25H137.337L136.612 12.23H135.672ZM137.572 9.4H140.047L138.817 5.915L137.572 9.4Z" fill="url(#paint9_radial_2341_12331)"/>
</g>
<path d="M139.332 1.5H119.875C115.945 1.5 112.76 4.68549 112.76 8.615C112.76 12.5445 115.945 15.73 119.875 15.73H139.332C143.261 15.73 146.447 12.5445 146.447 8.615C146.447 4.68549 143.261 1.5 139.332 1.5Z" stroke="#2F412F"/>
</g>
<defs>
<radialGradient id="paint0_radial_2341_12331" cx="0" cy="0" r="1" gradientUnits="userSpaceOnUse" gradientTransform="translate(12.5496 2.25196) rotate(16.8986) scale(85.9717 85.7231)">
<stop stop-color="#CEFFCC"/>
<stop offset="1" stop-color="#C9FBC9"/>
</radialGradient>
<radialGradient id="paint1_radial_2341_12331" cx="0" cy="0" r="1" gradientUnits="userSpaceOnUse" gradientTransform="translate(12.5496 2.25196) rotate(16.8986) scale(85.9717 85.7231)">
<stop stop-color="#CEFFCC"/>
<stop offset="1" stop-color="#C9FBC9"/>
</radialGradient>
<radialGradient id="paint2_radial_2341_12331" cx="0" cy="0" r="1" gradientUnits="userSpaceOnUse" gradientTransform="translate(12.5496 2.25196) rotate(16.8986) scale(85.9717 85.7231)">
<stop stop-color="#CEFFCC"/>
<stop offset="1" stop-color="#C9FBC9"/>
</radialGradient>
<radialGradient id="paint3_radial_2341_12331" cx="0" cy="0" r="1" gradientUnits="userSpaceOnUse" gradientTransform="translate(12.5496 2.25196) rotate(16.8986) scale(85.9717 85.7231)">
<stop stop-color="#CEFFCC"/>
<stop offset="1" stop-color="#C9FBC9"/>
</radialGradient>
<radialGradient id="paint4_radial_2341_12331" cx="0" cy="0" r="1" gradientUnits="userSpaceOnUse" gradientTransform="translate(12.5496 2.25196) rotate(16.8986) scale(85.9717 85.7231)">
<stop stop-color="#CEFFCC"/>
<stop offset="1" stop-color="#C9FBC9"/>
</radialGradient>
<radialGradient id="paint5_radial_2341_12331" cx="0" cy="0" r="1" gradientUnits="userSpaceOnUse" gradientTransform="translate(12.5496 2.25196) rotate(16.8986) scale(85.9717 85.7231)">
<stop stop-color="#CEFFCC"/>
<stop offset="1" stop-color="#C9FBC9"/>
</radialGradient>
<radialGradient id="paint6_radial_2341_12331" cx="0" cy="0" r="1" gradientUnits="userSpaceOnUse" gradientTransform="translate(120.176 -1.77002) rotate(42.2437) scale(27.4251 48.9331)">
<stop stop-color="#CEFFCC"/>
<stop offset="1" stop-color="#C9FBC9"/>
</radialGradient>
<radialGradient id="paint7_radial_2341_12331" cx="0" cy="0" r="1" gradientUnits="userSpaceOnUse" gradientTransform="translate(120.176 -1.77002) rotate(42.2437) scale(27.4251 48.9331)">
<stop stop-color="#CEFFCC"/>
<stop offset="1" stop-color="#C9FBC9"/>
</radialGradient>
<radialGradient id="paint8_radial_2341_12331" cx="0" cy="0" r="1" gradientUnits="userSpaceOnUse" gradientTransform="translate(120.176 -1.77002) rotate(42.2437) scale(27.4251 48.9331)">
<stop stop-color="#CEFFCC"/>
<stop offset="1" stop-color="#C9FBC9"/>
</radialGradient>
<radialGradient id="paint9_radial_2341_12331" cx="0" cy="0" r="1" gradientUnits="userSpaceOnUse" gradientTransform="translate(120.176 -1.77002) rotate(42.2437) scale(27.4251 48.9331)">
<stop stop-color="#CEFFCC"/>
<stop offset="1" stop-color="#C9FBC9"/>
</radialGradient>
<clipPath id="clip0_2341_12331">
<rect width="35" height="16" fill="white" transform="translate(112.26 1)"/>
</clipPath>
</defs>
</svg>
